<?xml version="1.0" standalone="no"?>
<!DOCTYPE svg PUBLIC "-//W3C//DTD SVG 20010904//EN"
 "http://www.w3.org/TR/2001/REC-SVG-20010904/DTD/svg10.dtd">
<svg version="1.0" xmlns="http://www.w3.org/2000/svg"
 width="700.000000pt" height="700.000000pt" viewBox="0 0 700.000000 700.000000"
 preserveAspectRatio="xMidYMid meet">
<metadata>
Created by potrace 1.11, written by Peter Selinger 2001-2013
</metadata>
<g transform="translate(0.000000,700.000000) scale(0.100000,-0.100000)"
fill="#000000" stroke="none">
<path d="M4838 6741 c-44 -23 -47 -31 -171 -361 -47 -124 -90 -236 -96 -250
-5 -14 -51 -135 -101 -270 -50 -135 -95 -254 -100 -265 -37 -83 -320 -845
-320 -862 0 -21 23 -52 41 -54 5 -1 14 -3 19 -4 6 -1 172 -3 370 -4 l360 -1
-21 -57 c-11 -32 -25 -67 -30 -78 -5 -11 -34 -87 -64 -170 -31 -82 -60 -159
-65 -170 -4 -11 -50 -130 -100 -265 -51 -135 -103 -272 -115 -305 -49 -124
-169 -442 -187 -495 -11 -30 -28 -74 -39 -97 -10 -24 -19 -46 -19 -50 0 -5
-43 -120 -95 -257 -52 -137 -95 -253 -95 -258 0 -4 20 -8 45 -8 l44 0 121 178
c226 331 1081 1586 1167 1712 79 117 305 449 471 693 88 129 96 147 76 175
-14 21 -22 21 -396 22 -210 0 -383 2 -385 4 -2 1 8 23 22 48 26 47 78 143 118
218 23 44 330 611 388 718 201 367 249 459 249 479 0 48 1 48 -548 49 -448 0
-518 -2 -544 -15z"/>
<path d="M2122 5890 c-15 -9 -33 -24 -40 -32 -11 -14 -112 -278 -328 -857 -35
-95 -75 -201 -88 -235 -13 -33 -43 -113 -66 -176 -23 -63 -46 -124 -51 -135
-4 -11 -22 -58 -39 -105 -17 -47 -35 -94 -40 -105 -12 -28 -118 -313 -179
-480 -28 -77 -56 -149 -61 -160 -38 -83 -130 -351 -130 -378 0 -21 8 -41 19
-51 18 -17 57 -18 511 -18 l490 -1 -6 -21 c-8 -28 -196 -532 -329 -881 -59
-154 -115 -305 -126 -335 -10 -30 -23 -64 -28 -75 -5 -11 -43 -110 -84 -220
-42 -110 -148 -393 -237 -630 -89 -236 -173 -459 -187 -495 -47 -126 -93 -251
-93 -255 0 -9 131 2 140 11 9 9 175 254 624 919 85 127 249 370 365 540 115
171 275 407 355 525 133 197 442 654 466 690 6 8 60 89 122 180 61 91 194 287
295 437 101 149 186 285 189 300 12 58 21 57 -542 57 -283 0 -514 2 -514 4 0
3 15 30 86 158 13 23 70 127 127 230 57 104 108 198 115 209 6 11 50 92 98
180 84 156 124 228 169 310 54 97 356 647 390 710 21 39 44 79 50 90 22 36 26
72 9 89 -8 9 -18 17 -22 17 -4 1 -321 3 -705 4 -632 1 -701 0 -725 -15z"/>
</g>
</svg>
